Directed by Dominic Sena. With Nicolas Cage, Ron Perlman, Claire Foy, Stephen Campbell Moore.
14th-century knights transport a suspected witch to a monastery, where monks deduce her powers could be the source of the Black Plague. 

Format : BDAV
Format/Info : Blu-ray Video
File size : 3.99 GiB
Duration : 1h 34mn
Overall bit rate : 6 031 Kbps
Maximum Overall bit rate : 35.5 Mbps

Video
ID : 4113 (0x1011)
Menu ID : 1 (0x1)
Format : AVC
Format/Info : Advanced Video Codec
Format profile : High@L4.0
Format settings, CABAC : Yes
Format settings, ReFrames : 3 frames
Codec ID : 27
Duration : 1h 34mn
Bit rate mode : Variable
Bit rate : 5 045 Kbps
Maximum bit rate : 25.0 Mbps
Width : 1 920 pixels
Height : 1 080 pixels
Display aspect ratio : 16:9
Frame rate : 23.976 fps
Color space : YUV
Chroma subsampling : 4:2:0
Bit depth : 8 bits
Scan type : Progressive
Bits/(Pixel*Frame) : 0.101
Stream size : 3.40 GiB (85%)

Audio
ID : 4352 (0x1100)
Menu ID : 1 (0x1)
Format : AC-3
Format/Info : Audio Coding 3
Mode extension : CM (complete main)
Codec ID : 129
Duration : 1h 34mn
Bit rate mode : Constant
Bit rate : 640 Kbps
Channel(s) : 6 channels
Channel positions : Front: L C R, Side: L R, LFE
Sampling rate : 48.0 KHz
Bit depth : 16 bits
Compression mode : Lossy
Stream size : 434 MiB (11%)
Language : English
 
http://pic.phyrefile.com/i/iu/iuyiyiy/2011/05/18/2482.png
 
http://pic.phyrefile.com/i/iu/iuyiyiy/2011/05/18/10060.png
